# xmcd
#
# Track frame offsets: 
#        182
#        29770
#        58450
#        75807
#        88952
#        104970
#        122755
#        138960
#        151400
#        167987
#        194202
#        218505
#        234910
#        250985
#        268965
#        287632
#        300470
#        318587
#
# Disc length: 4481 seconds
#
# Revision: 4
# Processed by: cddbd v1.5.2PL0 Copyright (c) Steve Scherf et al.
# Submitted via: ExactAudioCopyFreeDBPlugin 1.0
#
DISCID=13117f12
DTITLE=Harlem Ramblers - Back fromCalifornia
DYEAR=1992
DGENRE=Jazz
TTITLE0=New Orleans Function
TTITLE1=Trouble In Mind
TTITLE2=South
TTITLE3=Battle Hymn Of The Republic
TTITLE4=Way Down Yonder In New Orleans
TTITLE5=Just A Little While To Stay Here
TTITLE6=Ferien - Beautiful Dreamer
TTITLE7=I WIll Wait For You
TTITLE8=Higher Ground
TTITLE9=Maryland My Maryland
TTITLE10=Creole Love Call
TTITLE11=Doctor Jazz
TTITLE12=Tabis Plays Apex Blues
TTITLE13=Buddy Boldens Blues
TTITLE14=Old Rugged Cross
TTITLE15=Give Me Your Telephone Number
TTITLE16=Darktown Strutters Ball
TTITLE17=Deed I Do
EXTD=YEAR: 1992
EXTT0=
EXTT1=
EXTT2=
EXTT3=
EXTT4=
EXTT5=
EXTT6=
EXTT7=
EXTT8=
EXTT9=
EXTT10=
EXTT11=
EXTT12=
EXTT13=
EXTT14=
EXTT15=
EXTT16=
EXTT17=
PLAYORDER=
